<svg xmlns="http://www.w3.org/2000/svg" width="144" height="144" viewBox="0 0 144 144"> <rect x="0" y="0" width="144" height="144" rx="24" fill="#0a141b"/><rect x="10" y="10" width="124" height="124" rx="20" fill="#0f1e29" stroke="rgba(255,255,255,0.06)" stroke-width="1.2"/> <circle cx="118" cy="26" r="9" fill="#d6ffd1"/> <defs> <clipPath id="graph-panel-clip"> <rect x="0" y="0" width="144" height="144" rx="24"/> </clipPath> </defs> <g clip-path="url(#graph-panel-clip)"> <path d="M 0.00 134.00 C 5.18 135.80, 21.02 145.80, 28.80 144.00 C 36.58 142.20, 38.02 129.40, 43.20 124.00 C 48.38 118.60, 52.42 113.10, 57.60 114.00 C 62.78 114.90, 66.82 129.90, 72.00 129.00 C 77.18 128.10, 81.22 114.94, 86.40 109.00 C 91.58 103.06, 95.62 95.82, 100.80 96.00 C 105.98 96.18, 110.02 111.53, 115.20 110.00 C 120.38 108.47, 124.42 93.26, 129.60 87.50 C 134.78 81.74, 141.41 79.71, 144.00 78.00 L 144.00 144.00 L 0.00 144.00 Z" fill="#4dbef0" fill-opacity="0.14"/> <path d="M 0.00 134.00 C 5.18 135.80, 21.02 145.80, 28.80 144.00 C 36.58 142.20, 38.02 129.40, 43.20 124.00 C 48.38 118.60, 52.42 113.10, 57.60 114.00 C 62.78 114.90, 66.82 129.90, 72.00 129.00 C 77.18 128.10, 81.22 114.94, 86.40 109.00 C 91.58 103.06, 95.62 95.82, 100.80 96.00 C 105.98 96.18, 110.02 111.53, 115.20 110.00 C 120.38 108.47, 124.42 93.26, 129.60 87.50 C 134.78 81.74, 141.41 79.71, 144.00 78.00" fill="none" stroke="#73d8ff" stroke-linecap="round" stroke-linejoin="round" stroke-opacity="0.25" stroke-width="7.00"/> <path d="M 0.00 134.00 C 5.18 135.80, 21.02 145.80, 28.80 144.00 C 36.58 142.20, 38.02 129.40, 43.20 124.00 C 48.38 118.60, 52.42 113.10, 57.60 114.00 C 62.78 114.90, 66.82 129.90, 72.00 129.00 C 77.18 128.10, 81.22 114.94, 86.40 109.00 C 91.58 103.06, 95.62 95.82, 100.80 96.00 C 105.98 96.18, 110.02 111.53, 115.20 110.00 C 120.38 108.47, 124.42 93.26, 129.60 87.50 C 134.78 81.74, 141.41 79.71, 144.00 78.00" fill="none" stroke="#73d8ff" stroke-linecap="round" stroke-linejoin="round" stroke-opacity="0.90" stroke-width="3.00"/> </g> <g transform="translate(55 27) scale(1.4166666666666667)"> <g fill="#ffe470"><path d="M19.88 18.47c.44-.7.7-1.51.7-2.39 0-2.49-2.01-4.5-4.5-4.5s-4.5 2.01-4.5 4.5 2.01 4.5 4.49 4.5c.88 0 1.7-.26 2.39-.7L21.58 23 23 21.58l-3.12-3.11zm-3.8.11a2.5 2.5 0 0 1 0-5 2.5 2.5 0 0 1 0 5zm-.36-8.5c-.74.02-1.45.18-2.1.45l-.55-.83-3.8 6.18-3.01-3.52-3.63 5.81L1 17l5-8 3 3.5L13 6l2.72 4.08zm2.59.5c-.64-.28-1.33-.45-2.05-.49L21.38 2 23 3.18l-4.69 7.4z"/></g> </g> <g font-family="'Segoe UI','IBM Plex Sans',sans-serif" font-size="22" font-weight="700" text-anchor="middle" fill="#f8fbff"> <rect x="8" y="70" width="128" height="57" rx="10" fill="#071018" fill-opacity="0.70"/> <text x="72" y="93">Power Wall</text> <text x="72" y="118">4.82 kW</text> </g> </svg>