<svg xmlns="http://www.w3.org/2000/svg" width="144" height="144" viewBox="0 0 144 144"> <rect x="0" y="0" width="144" height="144" rx="24" fill="#0b1712"/><rect x="10" y="10" width="124" height="124" rx="20" fill="#10231b" stroke="rgba(255,255,255,0.06)" stroke-width="1.2"/> <circle cx="118" cy="26" r="9" fill="#d6ffd1"/> <g transform="translate(55 27) scale(1.4166666666666667)"> <g fill="#7effba"><path d="M3.33 16H11v-3H4zM13 16h7.67L20 13h-7zm8.11 2H13v4h9zM2 22h9v-4H2.89zm9-14h2v3h-2zm4.764-.795 1.415-1.414L19.3 7.912l-1.414 1.414zm-11.059.708L6.826 5.79 8.24 7.206 6.12 9.327zM3 2h3v2H3zm15 0h3v2h-3zm-6 5c2.76 0 5-2.24 5-5H7c0 2.76 2.24 5 5 5z"/></g> </g> <g font-family="'Segoe UI','IBM Plex Sans',sans-serif" font-size="22" font-weight="700" text-anchor="middle" fill="#f8fbff"> <text x="72" y="93">Solar Export</text> <text x="72" y="118">-3.34 kW</text> </g> </svg>