<svg xmlns="http://www.w3.org/2000/svg" width="144" height="144" viewBox="0 0 144 144"> <rect x="0" y="0" width="144" height="144" rx="24" fill="#181209"/><rect x="10" y="10" width="124" height="124" rx="20" fill="#251b0e" stroke="rgba(255,255,255,0.06)" stroke-width="1.2"/> <circle cx="118" cy="26" r="9" fill="#ffe5a8"/> <defs> <clipPath id="graph-panel-clip"> <rect x="0" y="0" width="144" height="144" rx="24"/> </clipPath> </defs> <g clip-path="url(#graph-panel-clip)"> <path d="M 0.00 136.67 C 5.18 137.99, 21.02 145.32, 28.80 144.00 C 36.58 142.68, 38.02 135.05, 43.20 129.33 C 48.38 123.61, 52.42 117.94, 57.60 112.22 C 62.78 106.50, 66.82 102.40, 72.00 97.56 C 77.18 92.72, 81.22 88.85, 86.40 85.33 C 91.58 81.81, 95.62 77.56, 100.80 78.00 C 105.98 78.44, 110.02 87.34, 115.20 87.78 C 120.38 88.22, 124.42 82.20, 129.60 80.44 C 134.78 78.68, 141.41 78.44, 144.00 78.00 L 144.00 144.00 L 0.00 144.00 Z" fill="#f0b447" fill-opacity="0.18"/> <path d="M 0.00 136.67 C 5.18 137.99, 21.02 145.32, 28.80 144.00 C 36.58 142.68, 38.02 135.05, 43.20 129.33 C 48.38 123.61, 52.42 117.94, 57.60 112.22 C 62.78 106.50, 66.82 102.40, 72.00 97.56 C 77.18 92.72, 81.22 88.85, 86.40 85.33 C 91.58 81.81, 95.62 77.56, 100.80 78.00 C 105.98 78.44, 110.02 87.34, 115.20 87.78 C 120.38 88.22, 124.42 82.20, 129.60 80.44 C 134.78 78.68, 141.41 78.44, 144.00 78.00" fill="none" stroke="#ffd269" stroke-linecap="round" stroke-linejoin="round" stroke-opacity="0.25" stroke-width="7.00"/> <path d="M 0.00 136.67 C 5.18 137.99, 21.02 145.32, 28.80 144.00 C 36.58 142.68, 38.02 135.05, 43.20 129.33 C 48.38 123.61, 52.42 117.94, 57.60 112.22 C 62.78 106.50, 66.82 102.40, 72.00 97.56 C 77.18 92.72, 81.22 88.85, 86.40 85.33 C 91.58 81.81, 95.62 77.56, 100.80 78.00 C 105.98 78.44, 110.02 87.34, 115.20 87.78 C 120.38 88.22, 124.42 82.20, 129.60 80.44 C 134.78 78.68, 141.41 78.44, 144.00 78.00" fill="none" stroke="#ffd269" stroke-linecap="round" stroke-linejoin="round" stroke-opacity="0.90" stroke-width="3.00"/> </g> <g transform="translate(54 26) scale(1.5)"> <g fill="#ffe27a"><path d="M9 21c0 .5.4 1 1 1h4c.6 0 1-.5 1-1v-1H9v1zm3-19C8.1 2 5 5.1 5 9c0 2.4 1.2 4.5 3 5.7V17c0 .5.4 1 1 1h6c.6 0 1-.5 1-1v-2.3c1.8-1.3 3-3.4 3-5.7 0-3.9-3.1-7-7-7z"/></g> </g> <g font-family="'Segoe UI','IBM Plex Sans',sans-serif" font-size="24" font-weight="700" text-anchor="middle" fill="#f8fbff"> <rect x="12" y="65" width="120.80000000000001" height="63" rx="11" fill="#1b1207" fill-opacity="0.74"/> <text x="72" y="91">Kitchen</text> <text x="72" y="118">72%</text> </g> </svg>