<svg xmlns="http://www.w3.org/2000/svg" width="144" height="144" viewBox="0 0 144 144"> <rect x="0" y="0" width="144" height="144" rx="24" fill="#101016"/><rect x="10" y="10" width="124" height="124" rx="20" fill="#191921" stroke="rgba(255,255,255,0.06)" stroke-width="1.2"/> <circle cx="118" cy="26" r="9" fill="#ffe5a8"/> <defs> <clipPath id="graph-panel-clip"> <rect x="0" y="0" width="144" height="144" rx="24"/> </clipPath> </defs> <g clip-path="url(#graph-panel-clip)"> <path d="M 0.00 144.00 C 22.03 141.20, 99.94 132.92, 122.40 128.43 C 144.86 123.95, 123.94 122.46, 124.80 119.09 C 125.66 115.73, 126.34 113.68, 127.20 109.75 C 128.06 105.83, 128.74 101.22, 129.60 97.30 C 130.46 93.38, 131.14 90.43, 132.00 87.96 C 132.86 85.50, 133.54 83.49, 134.40 83.60 C 135.26 83.72, 135.94 88.98, 136.80 88.58 C 137.66 88.19, 138.34 83.33, 139.20 81.42 C 140.06 79.52, 140.74 78.28, 141.60 78.00 C 142.46 77.72, 143.57 79.53, 144.00 79.87 L 144.00 144.00 L 0.00 144.00 Z" fill="#f1638c" fill-opacity="0.18"/> <path d="M 0.00 144.00 C 22.03 141.20, 99.94 132.92, 122.40 128.43 C 144.86 123.95, 123.94 122.46, 124.80 119.09 C 125.66 115.73, 126.34 113.68, 127.20 109.75 C 128.06 105.83, 128.74 101.22, 129.60 97.30 C 130.46 93.38, 131.14 90.43, 132.00 87.96 C 132.86 85.50, 133.54 83.49, 134.40 83.60 C 135.26 83.72, 135.94 88.98, 136.80 88.58 C 137.66 88.19, 138.34 83.33, 139.20 81.42 C 140.06 79.52, 140.74 78.28, 141.60 78.00 C 142.46 77.72, 143.57 79.53, 144.00 79.87" fill="none" stroke="#f48db0" stroke-linecap="round" stroke-linejoin="round" stroke-opacity="0.25" stroke-width="7.00"/> <path d="M 0.00 144.00 C 22.03 141.20, 99.94 132.92, 122.40 128.43 C 144.86 123.95, 123.94 122.46, 124.80 119.09 C 125.66 115.73, 126.34 113.68, 127.20 109.75 C 128.06 105.83, 128.74 101.22, 129.60 97.30 C 130.46 93.38, 131.14 90.43, 132.00 87.96 C 132.86 85.50, 133.54 83.49, 134.40 83.60 C 135.26 83.72, 135.94 88.98, 136.80 88.58 C 137.66 88.19, 138.34 83.33, 139.20 81.42 C 140.06 79.52, 140.74 78.28, 141.60 78.00 C 142.46 77.72, 143.57 79.53, 144.00 79.87" fill="none" stroke="#f48db0" stroke-linecap="round" stroke-linejoin="round" stroke-opacity="0.90" stroke-width="3.00"/> </g> <g transform="translate(55 27) scale(1.4166666666666667)"> <g fill="#ffd36e"><path d="M19.88 18.47c.44-.7.7-1.51.7-2.39 0-2.49-2.01-4.5-4.5-4.5s-4.5 2.01-4.5 4.5 2.01 4.5 4.49 4.5c.88 0 1.7-.26 2.39-.7L21.58 23 23 21.58l-3.12-3.11zm-3.8.11a2.5 2.5 0 0 1 0-5 2.5 2.5 0 0 1 0 5zm-.36-8.5c-.74.02-1.45.18-2.1.45l-.55-.83-3.8 6.18-3.01-3.52-3.63 5.81L1 17l5-8 3 3.5L13 6l2.72 4.08zm2.59.5c-.64-.28-1.33-.45-2.05-.49L21.38 2 23 3.18l-4.69 7.4z"/></g> </g> <g font-family="'Segoe UI','IBM Plex Sans',sans-serif" font-size="22" font-weight="700" text-anchor="middle" fill="#f8fbff"> <rect x="8" y="70" width="128" height="57" rx="10" fill="#130811" fill-opacity="0.74"/> <text x="72" y="93">Grid Load</text> <text x="72" y="118">9.22 kW</text> </g> </svg>