<svg xmlns="http://www.w3.org/2000/svg" width="144" height="144" viewBox="0 0 144 144"> <rect x="0" y="0" width="144" height="144" rx="24" fill="#181209"/><rect x="10" y="10" width="124" height="124" rx="20" fill="#251b0e" stroke="rgba(255,255,255,0.06)" stroke-width="1.2"/> <circle cx="118" cy="26" r="9" fill="#ffe5a8"/> <g transform="translate(54 26) scale(1.5)"> <g fill="#ffe27a"><path d="M9 21c0 .5.4 1 1 1h4c.6 0 1-.5 1-1v-1H9v1zm3-19C8.1 2 5 5.1 5 9c0 2.4 1.2 4.5 3 5.7V17c0 .5.4 1 1 1h6c.6 0 1-.5 1-1v-2.3c1.8-1.3 3-3.4 3-5.7 0-3.9-3.1-7-7-7z"/></g> </g> <g font-family="'Segoe UI','IBM Plex Sans',sans-serif" font-size="24" font-weight="700" text-anchor="middle" fill="#f8fbff"> <text x="72" y="91">Kitchen</text> <text x="72" y="118">72%</text> </g> </svg>