<svg xmlns="http://www.w3.org/2000/svg" width="144" height="144" viewBox="0 0 144 144"> <rect x="0" y="0" width="144" height="144" rx="24" fill="#17100b"/><rect x="10" y="10" width="124" height="124" rx="20" fill="#231811" stroke="rgba(255,255,255,0.06)" stroke-width="1.2"/> <circle cx="118" cy="26" r="9" fill="#d5dde4"/> <g transform="translate(55 27) scale(1.4166666666666667)"> <g fill="#ffc98d"><path d="M15 13V5c0-1.66-1.34-3-3-3S9 3.34 9 5v8c-1.21.91-2 2.37-2 4 0 2.76 2.24 5 5 5s5-2.24 5-5c0-1.63-.79-3.09-2-4zm-4-2V5c0-.55.45-1 1-1s1 .45 1 1v1h-1v1h1v2h-1v1h1v1h-2z"/></g> </g> <g font-family="'Segoe UI','IBM Plex Sans',sans-serif" font-size="22" font-weight="700" text-anchor="middle" fill="#f8fbff"> <text x="72" y="93">Hallway</text> <text x="72" y="118">21.4 C</text> </g> </svg>