<svg xmlns="http://www.w3.org/2000/svg" width="144" height="144" viewBox="0 0 144 144"> <rect x="0" y="0" width="144" height="144" rx="24" fill="#861f2e"/><rect x="10" y="10" width="124" height="124" rx="20" fill="#cb2f45" stroke="rgba(255,255,255,0.06)" stroke-width="1.2"/> <circle cx="118" cy="26" r="9" fill="#ffb4ba"/> <defs> <clipPath id="graph-panel-clip"> <rect x="0" y="0" width="144" height="144" rx="24"/> </clipPath> </defs> <g clip-path="url(#graph-panel-clip)"> <path d="M 0.00 144.00 C 22.03 141.20, 99.94 132.92, 122.40 128.43 C 144.86 123.95, 123.94 122.46, 124.80 119.09 C 125.66 115.73, 126.34 113.68, 127.20 109.75 C 128.06 105.83, 128.74 101.22, 129.60 97.30 C 130.46 93.38, 131.14 90.43, 132.00 87.96 C 132.86 85.50, 133.54 83.49, 134.40 83.60 C 135.26 83.72, 135.94 88.98, 136.80 88.58 C 137.66 88.19, 138.34 83.33, 139.20 81.42 C 140.06 79.52, 140.74 78.28, 141.60 78.00 C 142.46 77.72, 143.57 79.53, 144.00 79.87 L 144.00 144.00 L 0.00 144.00 Z" fill="#ffd6e4" fill-opacity="0.26"/> <path d="M 0.00 144.00 C 22.03 141.20, 99.94 132.92, 122.40 128.43 C 144.86 123.95, 123.94 122.46, 124.80 119.09 C 125.66 115.73, 126.34 113.68, 127.20 109.75 C 128.06 105.83, 128.74 101.22, 129.60 97.30 C 130.46 93.38, 131.14 90.43, 132.00 87.96 C 132.86 85.50, 133.54 83.49, 134.40 83.60 C 135.26 83.72, 135.94 88.98, 136.80 88.58 C 137.66 88.19, 138.34 83.33, 139.20 81.42 C 140.06 79.52, 140.74 78.28, 141.60 78.00 C 142.46 77.72, 143.57 79.53, 144.00 79.87" fill="none" stroke="#fff4f8" stroke-linecap="round" stroke-linejoin="round" stroke-opacity="0.28" stroke-width="8.00"/> <path d="M 0.00 144.00 C 22.03 141.20, 99.94 132.92, 122.40 128.43 C 144.86 123.95, 123.94 122.46, 124.80 119.09 C 125.66 115.73, 126.34 113.68, 127.20 109.75 C 128.06 105.83, 128.74 101.22, 129.60 97.30 C 130.46 93.38, 131.14 90.43, 132.00 87.96 C 132.86 85.50, 133.54 83.49, 134.40 83.60 C 135.26 83.72, 135.94 88.98, 136.80 88.58 C 137.66 88.19, 138.34 83.33, 139.20 81.42 C 140.06 79.52, 140.74 78.28, 141.60 78.00 C 142.46 77.72, 143.57 79.53, 144.00 79.87" fill="none" stroke="#fff4f8" stroke-linecap="round" stroke-linejoin="round" stroke-opacity="1.00" stroke-width="4.00"/> </g> <g transform="translate(55 27) scale(1.4166666666666667)"> <g fill="#fff9ef"><path d="M12 5.99 19.53 19H4.47L12 5.99M12 2 1 21h22L12 2z"/><path d="M13 16h-2v2h2zm0-6h-2v5h2z"/></g> </g> <g font-family="'Segoe UI','IBM Plex Sans',sans-serif" font-size="22" font-weight="700" text-anchor="middle" fill="#fff8fb"> <rect x="8" y="70" width="128" height="57" rx="10" fill="#1a0911" fill-opacity="0.76"/> <text x="72" y="93">Grid Load</text> <text x="72" y="118">9.22 kW</text> </g> </svg>